<svg xmlns="http://www.w3.org/2000/svg" viewBox="0 0 64 64" fill="none">
  <rect x="22" y="10" width="20" height="10" rx="2" fill="#F08A3C"/>
  <path d="M6 40 Q6 30 16 28 L22 22 Q24 20 27 20 H42 Q45 20 47 22 L53 28 Q58 29 58 36 V44 Q58 47 55 47 H9 Q6 47 6 44 Z" fill="#1F6B7E"/>
  <path d="M24 24 Q25 22 27 22 H36 V32 H20 L24 24 Z" fill="#CFE6EC"/>
  <path d="M38 22 H42 Q44 22 45 24 L48 32 H38 Z" fill="#CFE6EC"/>
  <rect x="36" y="22" width="2" height="10" fill="#1F6B7E"/>
  <circle cx="20" cy="48" r="7" fill="#F08A3C"/>
  <circle cx="20" cy="48" r="2.6" fill="#1F2E33"/>
  <circle cx="46" cy="48" r="7" fill="#F08A3C"/>
  <circle cx="46" cy="48" r="2.6" fill="#1F2E33"/>
</svg>
